<svg id="Layer_1" data-name="Layer 1" xmlns="http://www.w3.org/2000/svg" width="2579.48" height="1335.23" viewBox="0 0 2579.48 1335.23">
  <title>Artboard 2</title>
  <path d="M137.59,822.29A15.43,15.43,0,0,1,116,826.72a15.63,15.63,0,0,1-4.44-21.61c30.5-46.18,145.06-265,230-448.83,54.19-116.94,95.92-218.19,95-248.39a11.34,11.34,0,0,1-.29-3l31.38-1.18v2.66c.89,8.88,7.4,45.3,16.88,98.88,10.06,57.44,24,134.12,37.88,220,9.18-22.21,18.67-43.52,29-63.36C630.23,207.66,720.23,144.9,802,140.16c71.64-3.85,135.9,36.42,181.19,99.18,43.82,61.28,69.58,144.18,65.44,227.37-3.56,69-27.25,138.26-78.17,195.7a126.65,126.65,0,0,1,45.31,33.45c25.45,29.91,36.41,70.77,36.1,116.36,0,37.3-7.69,77.86-21,118.43,122.57,12.43,262,60.09,412.71,111.61,314.11,107.46,677.68,232.11,1025.26,79a15.29,15.29,0,0,1,20.43,8,15.61,15.61,0,0,1-8,20.72c-358.54,157.81-728.31,31.38-1047.76-78.16-152.47-52.1-293.1-100.37-413.59-110.43-50.63,127-154.85,246-257.28,248.1-23.4.59-42-4.15-55.67-12.73-16-9.77-25.45-24.58-29-42.33-3.26-16-1.48-34.35,4.74-53.59,11-33.16,35.53-69,70.17-98.59,68.68-58.91,151.87-78.46,246-74,13.92-40,21.91-79.94,21.91-116,0-38.49-8.59-72.24-28.72-95.93-11.25-13-26.34-23.39-45.59-29.9-35.82,32.86-82,60.4-140,79.94-54.49,18.65-89.12,21.32-107.18,15.39C685,777,677.9,767.51,677,755.38c-.59-9.48,3.56-20.14,11.55-30.5,18.35-24,62.17-52.4,117.84-66,53-12.73,96.21-14.51,130.85-7.11,52.4-53.88,76.68-120.2,80.24-186.52,3.84-76.08-19.85-151.88-59.81-207.54-39.09-54.47-93.86-89.41-153.95-86.15C732.37,175.39,652.14,233.42,579,376.12c-10.07,20.13-20.13,42.33-29.61,66-5.91,14.51-11.54,29.61-17.18,45,40.86,262,77.87,581.17,31.09,697.22-18.34,45-47.66,64-91.48,46.19a15.07,15.07,0,0,1-4.43-2.08h0c-54.18-27.53-69.28-159.57-55.67-319.73,11.85-136.2,43.22-294.29,88.53-424.56C483.39,377,465.92,279.6,453.78,210.62l-5-27.83C431,232.53,402.86,298.55,370,369.31c-85.27,184.74-201.32,405.89-232.41,453Zm396.73,350.23c40.86-101,12.73-374.51-23.4-619.06C476.59,668,452.9,797.41,443.13,911.4c-12.73,148.32-2.67,268.23,38.19,289.25h0l2.07.89c23.69,9.47,40-2.07,50.93-29Zm262-435.8c43.82-14.8,80.24-34.64,110.14-57.73-25.76-1.48-56.55,1.48-92.66,10.36-48.26,11.85-85.57,35.23-100.37,54.78-3.56,4.14-5.33,7.39-5,9.18,0,1.18,0-1.49.59-1.2,12.43,4.15,40,.89,87.33-15.39ZM762,1178.44c86.74-1.77,177-105.69,224.7-219.08C904.39,957.29,832.14,975.65,773,1026c-30.22,25.76-51.53,56.55-60.7,84.68-4.44,13.91-5.93,26.93-3.85,37.59,2.06,9.18,6.81,16.88,15.1,22.21,8.59,5.33,21.31,8.29,38.49,8Z"/>
</svg>
